<svg width="1200" height="680" viewBox="0 0 1200 680" fill="none" xmlns="http://www.w3.org/2000/svg">
  <rect width="1200" height="680" rx="28" fill="#fffdf7"/>
  <rect x="44" y="42" width="1112" height="596" rx="26" fill="#fffaf0" stroke="#1f2937" stroke-width="4"/>
  <path d="M84 144 C212 126, 309 132, 430 118" stroke="#e23b3b" stroke-width="8" stroke-linecap="round"/>
  <text x="82" y="112" fill="#111827" font-family="Arial, Helvetica, sans-serif" font-size="54" font-weight="800">text-infographic.skill</text>
  <text x="84" y="174" fill="#374151" font-family="Arial, Helvetica, sans-serif" font-size="28">把一段文字，压缩成一张课程白板式信息制图</text>

  <rect x="84" y="226" width="312" height="220" rx="22" fill="#fef2f2" stroke="#111827" stroke-width="3"/>
  <rect x="112" y="254" width="126" height="38" rx="19" fill="#ef4444"/>
  <text x="135" y="282" fill="white" font-family="Arial, Helvetica, sans-serif" font-size="22" font-weight="700">输入</text>
  <text x="116" y="340" fill="#111827" font-family="Arial, Helvetica, sans-serif" font-size="26" font-weight="700">普通段落</text>
  <text x="116" y="384" fill="#374151" font-family="Arial, Helvetica, sans-serif" font-size="22">课程笔记 / 文章片段</text>
  <text x="116" y="420" fill="#374151" font-family="Arial, Helvetica, sans-serif" font-size="22">产品说明 / 知识点</text>

  <path d="M420 336 C472 330, 512 330, 564 336" stroke="#111827" stroke-width="4" stroke-linecap="round"/>
  <path d="M544 318 L568 336 L544 354" stroke="#111827" stroke-width="4" stroke-linecap="round" stroke-linejoin="round"/>
  <text x="444" y="302" fill="#ef4444" font-family="Arial, Helvetica, sans-serif" font-size="22" font-weight="700">结构化</text>

  <rect x="588" y="210" width="520" height="284" rx="24" fill="#ffffff" stroke="#111827" stroke-width="3"/>
  <text x="626" y="268" fill="#111827" font-family="Arial, Helvetica, sans-serif" font-size="34" font-weight="800">同一风格的信息图</text>
  <rect x="628" y="310" width="128" height="82" rx="16" fill="#dbeafe" stroke="#111827" stroke-width="3"/>
  <text x="660" y="360" fill="#111827" font-family="Arial, Helvetica, sans-serif" font-size="24" font-weight="700">模块</text>
  <rect x="790" y="310" width="128" height="82" rx="16" fill="#dcfce7" stroke="#111827" stroke-width="3"/>
  <text x="822" y="360" fill="#111827" font-family="Arial, Helvetica, sans-serif" font-size="24" font-weight="700">箭头</text>
  <rect x="952" y="310" width="108" height="82" rx="16" fill="#ffedd5" stroke="#111827" stroke-width="3"/>
  <text x="982" y="360" fill="#111827" font-family="Arial, Helvetica, sans-serif" font-size="24" font-weight="700">总结</text>
  <path d="M760 350 H786" stroke="#111827" stroke-width="3" stroke-linecap="round"/>
  <path d="M920 350 H948" stroke="#111827" stroke-width="3" stroke-linecap="round"/>
  <rect x="626" y="424" width="434" height="42" rx="21" fill="#fee2e2" stroke="#ef4444" stroke-width="3" stroke-dasharray="8 8"/>
  <text x="662" y="453" fill="#b91c1c" font-family="Arial, Helvetica, sans-serif" font-size="22" font-weight="800">重点只标红一句，读者一眼看懂</text>

  <rect x="84" y="520" width="1024" height="64" rx="20" fill="#f3f4f6" stroke="#111827" stroke-width="3" stroke-dasharray="10 10"/>
  <text x="122" y="562" fill="#111827" font-family="Arial, Helvetica, sans-serif" font-size="26" font-weight="700">白底 · 黑线 · 红重点 · 彩色标签 · 圆角卡片 · 底部总结条</text>
</svg>
